<svg version="1" xmlns="http://www.w3.org/2000/svg" width="400" height="400" viewBox="0 0 300.000000 300.000000"><path d="M84 45c-14.9 2.7-22.9 17.8-16.6 31.1 3.8 8 11.7 12.8 20.5 12.4 6.5-.3 10.4-2 14.9-6.6 6.9-7.1 8.4-16.9 3.8-25.7-2.3-4.5-9.6-10.1-14.2-10.8-2.1-.3-4.1-.7-4.4-.8-.3-.1-2.1 0-4 .4zM168.4 44.8c-3.1.4-5.7 3.8-6 7.5-.1 1.8-.2 3.6-.3 4.2 0 .6-6.7 1-17.5 1-15.7 0-17.6.2-19.5 1.9-2.8 2.5-2.7 7.3.1 9.7 2 1.8 4.9 1.9 59.5 1.9H242v122h-57.3c-56.3 0-57.4 0-59.5 2-2.5 2.4-2.8 6.6-.6 9.5 1.5 2 2.7 2 64.5 2h63l1.7-2.2c1.6-2.1 1.7-7.9 1.7-71.5-.1-38.1-.4-70.3-.9-71.5-.4-1.2-1.7-2.5-2.9-3-1.2-.4-15.4-.7-31.6-.8h-29.4l-.4-3c-.6-5.7-1.3-7.4-3.4-8.6-2-1-13.9-1.8-18.5-1.1z"/><path d="M56.4 97.8c-3.2.5-6.8 2.6-8.9 5.2-1.1 1.3-2 2.7-2 3 0 .3-.3.9-.6 1.5-.5.8-.5 51.7 0 57.2.2 2.5 5.3 8.3 7.3 8.3.9 0 1.9.4 2.2.9.3.5 1.9.7 3.6.6 1.6-.1 3 0 3 .4 0 .3.1 15.9.3 34.6.2 32.2.3 34.1 2.2 36.7 2.5 3.4 7.3 5.8 11.7 5.8 3.9 0 9.2-3 10.8-6.1 1.2-2.1 1.2-2.1 3.3.9 3.6 5 12 6.6 17.4 3.3 6.7-4.2 6.5-1.9 6.6-68.5l.2-60.1h27.7c26.5 0 27.8-.1 30.5-2.1 5.8-4.4 7-11.3 2.7-16.9-1.5-2-3.8-3.7-5.6-4.1-4.7-1-67.8-.8-68.7.2-.5.5-3.5 4.3-6.8 8.5-4 5.1-6.2 7.2-6.9 6.5-.5-.6-2.5-3.1-4.4-5.6-7.8-10.2-7.9-10.2-16.2-10.4-4.1 0-8.3 0-9.4.2zM158.6 227.9c-8.8 8.7-16.1 16.6-16.2 17.5-.4 2.8 3 6 5.7 5.3 1.3-.4 8.2-6.5 15.3-13.7l13-13 13.5 13.5c7.4 7.4 14.1 13.5 14.8 13.5 3 0 5.3-2.1 5.3-4.8 0-2.2-3.1-5.8-15.8-18.2-8.6-8.6-16.6-15.6-17.7-15.8-1.4-.1-6.7 4.5-17.9 15.7z"/></svg>